#!OML:ASF H:\ManfredObstacles\Project 1\Capture day 2\Session 1\male.ASF
:FULLY-SPECIFIED
:DEGREES
208
root 2.1418 8.41329 10.7392 -118.782 -13.48 159.545
lowerback 23.221 -2.6887 -1.03496
upperback 13.3727 -6.00324 1.56953
thorax 2.10327 -3.90227 3.46661
lowerneck -24.1179 -2.49191 1.11257
upperneck 8.52048 -4.80254 6.42094
head 6.61017 -1.74311 1.33161
rclavicle -1.27222e-014 -5.56597e-015
rhumerus 10.1117 0.680295 -82.2626
rradius 53.2484
rwrist 40.5434
rhand -54.3565 -19.0567
rfingers 7.12502
rthumb -26.7645 -47.1834
lclavicle -1.27222e-014 -5.56597e-015
lhumerus 51.0989 -13.626 58.991
lradius 53.4684
lwrist -34.0703
lhand -39.3374 24.5381
lfingers 7.12502
lthumb -12.329 54.1546
rfemur -89.3465 -29.8975 30.7527
rtibia 134.801
rfoot 14.3262 2.98782
rtoes 4.62094
lfemur -67.076 2.05546 -21.8165
ltibia 113.716
lfoot 2.81914 6.36889
ltoes -1.90819
209
root 2.12903 8.41836 10.5914 -118.274 -13.1385 159.528
lowerback 23.2572 -2.46147 -1.08887
upperback 13.2162 -5.6613 1.54512
thorax 1.88579 -3.71336 3.41794
lowerneck -24.2411 -2.71874 1.02131
upperneck 8.34332 -5.08536 6.52549
head 6.58459 -1.87661 1.34434
rclavicle 5.56597e-014 -7.15625e-015
rhumerus 8.53624 -0.0300737 -82.3591
rradius 54.3016
rwrist 40.2889
rhand -53.8015 -17.7333
rfingers 7.12502
rthumb -26.2333 -45.9401
lclavicle 5.56597e-014 -7.15625e-015
lhumerus 50.3174 -14.5741 59.3752
lradius 54.3319
lwrist -34.2634
lhand -39.8842 24.781
lfingers 7.12502
lthumb -12.8561 54.3651
rfemur -89.2063 -29.2027 30.3928
rtibia 134.315
rfoot 14.6691 3.39562
rtoes 3.65788
lfemur -66.4547 2.12163 -21.825
ltibia 112.543
lfoot 2.74227 5.76949
ltoes -2.21893
210
root 2.11597 8.42622 10.4467 -117.825 -12.7423 159.594
lowerback 23.3913 -2.21081 -1.11244
upperback 13.0493 -5.286 1.48308
thorax 1.60139 -3.50429 3.31242
lowerneck -24.3745 -2.94346 0.930391
upperneck 8.23641 -5.36569 6.61679
head 6.58358 -2.00645 1.35261
rclavicle -5.40694e-014 3.47873e-014
rhumerus 6.853 -0.747514 -82.4623
rradius 55.5584
rwrist 39.8679
rhand -53.0253 -16.0508
rfingers 7.12502
rthumb -25.49 -44.3659
lclavicle -5.40694e-014 3.47873e-014
lhumerus 49.4922 -15.5372 59.7904
lradius 55.2275
lwrist -34.4635
lhand -40.4075 24.9638
lfingers 7.12502
lthumb -13.3606 54.5154
rfemur -89.0127 -28.4813 30.0266
rtibia 133.889
rfoot 14.6919 3.65951
rtoes 2.90051
lfemur -65.7944 2.22545 -21.8234
ltibia 111.353
lfoot 2.64192 5.12165
ltoes -2.50823
211
root 2.1015 8.43688 10.3049 -117.435 -12.3319 159.744
lowerback 23.6132 -1.96298 -1.07706
upperback 12.8754 -4.90728 1.40057
thorax 1.26189 -3.28981 3.15536
lowerneck -24.5133 -3.15368 0.833309
upperneck 8.18831 -5.62139 6.6733
head 6.60116 -2.12474 1.35317
rclavicle -2.8625e-014 2.3059e-014
rhumerus 5.10099 -1.45762 -82.5779
rradius 56.9968
rwrist 39.3598
rhand -52.017 -14.1603
rfingers 7.12502
rthumb -24.5238 -42.6099
lclavicle -2.8625e-014 2.3059e-014
lhumerus 48.5807 -16.4505 60.2553
lradius 56.1623
lwrist -34.6844
lhand -40.8964 25.0951
lfingers 7.12502
lthumb -13.8318 54.6152
rfemur -88.7123 -27.8041 29.6935
rtibia 133.52
rfoot 14.4588 3.71014
rtoes 2.64825
lfemur -65.1021 2.35069 -21.7879
ltibia 110.161
lfoot 2.54033 4.43281
ltoes -2.76589
212
root 2.08502 8.45062 10.1662 -117.063 -11.9377 159.969
lowerback 23.8745 -1.74333 -0.956984
upperback 12.6952 -4.55055 1.30351
thorax 0.893677 -3.08152 2.93871
lowerneck -24.6416 -3.34988 0.714236
upperneck 8.14702 -5.84735 6.70468
head 6.61823 -2.23161 1.35257
rclavicle 1.59028e-014 1.53064e-014
rhumerus 3.32687 -2.12064 -82.7053
rradius 58.6028
rwrist 38.7174
rhand -50.7784 -12.283
rfingers 7.12502
rthumb -23.336 -40.8885
lclavicle 1.59028e-014 1.53064e-014
lhumerus 47.5886 -17.2695 60.7501
lradius 57.1242
lwrist -34.9093
lhand -41.3481 25.16
lfingers 7.12502
lthumb -14.267 54.6499
rfemur -88.3053 -27.1507 29.4273
rtibia 133.199
rfoot 14.0706 3.49545
rtoes 2.92869
lfemur -64.4424 2.47747 -21.6999
ltibia 108.983
lfoot 2.44642 3.71334
ltoes -2.97908
213
root 2.06702 8.46667 10.0305 -116.682 -11.5754 160.253
lowerback 24.1487 -1.55157 -0.781512
upperback 12.5087 -4.21928 1.22027
thorax 0.515604 -2.88446 2.70784
lowerneck -24.7715 -3.52744 0.57769
upperneck 8.09651 -6.03603 6.69148
head 6.63009 -2.32578 1.34473
rclavicle -1.74931e-014 1.94809e-014
rhumerus 1.58107 -2.73799 -82.8232
rradius 60.3496
rwrist 38.0589
rhand -49.4778 -10.7364
rfingers 7.12502
rthumb -22.0878 -39.4948
lclavicle -1.74931e-014 1.94809e-014
lhumerus 46.5256 -17.9706 61.2844
lradius 58.1006
lwrist -35.1299
lhand -41.7824 25.1893
lfingers 7.12502
lthumb -14.6855 54.6492
rfemur -87.7862 -26.5342 29.2492
rtibia 132.917
rfoot 13.5615 3.04499
rtoes 3.35387
lfemur -63.8486 2.59639 -21.5537
ltibia 107.839
lfoot 2.36093 2.95948
ltoes -3.12839
214
root 2.04801 8.4841 9.89771 -116.241 -11.2617 160.585
lowerback 24.3707 -1.38109 -0.569832
upperback 12.3149 -3.90417 1.17558
thorax 0.160614 -2.69548 2.4941
lowerneck -24.9009 -3.69454 0.4391
upperneck 8.00752 -6.19913 6.61569
head 6.62573 -2.41543 1.3201
rclavicle 2.38542e-014 -3.71727e-014
rhumerus -0.092558 -3.29631 -82.9
rradius 62.2339
rwrist 37.3967
rhand -48.2825 -9.59531
rfingers 7.12502
rthumb -20.9398 -38.485
lclavicle 2.38542e-014 -3.71727e-014
lhumerus 45.4409 -18.561 61.8583
lradius 59.0677
lwrist -35.3405
lhand -42.2155 25.2167
lfingers 7.12502
lthumb -15.1028 54.6458
rfemur -87.1999 -25.9087 29.1859
rtibia 132.653
rfoot 13.0288 2.44071
rtoes 3.68639
lfemur -63.3919 2.70128 -21.3421
ltibia 106.748
lfoot 2.28051 2.17567
ltoes -3.22401
215
root 2.02885 8.5015 9.76807 -115.695 -10.9758 160.943
lowerback 24.485 -1.21549 -0.389322
upperback 12.1104 -3.59446 1.18961
thorax -0.145051 -2.51245 2.35264
lowerneck -25.0502 -3.84769 0.302663
upperneck 7.89163 -6.33224 6.45792
head 6.61077 -2.49934 1.27207
rclavicle -2.70347e-014 3.18055e-015
rhumerus -1.65102 -3.77326 -82.8953
rradius 64.2586
rwrist 36.7682
rhand -47.4173 -8.89875
rfingers 7.12502
rthumb -20.1084 -37.8781
lclavicle -2.70347e-014 3.18055e-015
lhumerus 44.3687 -19.0487 62.4617
lradius 60.0041
lwrist -35.5577
lhand -42.6576 25.302
lfingers 7.12502
lthumb -15.5286 54.6985
rfemur -86.6372 -25.2415 29.2227
rtibia 132.403
rfoot 12.5315 1.78968
rtoes 3.40414
lfemur -63.1192 2.78976 -21.0958
ltibia 105.721
lfoot 2.20363 1.37551
ltoes -3.2492
216
root 2.01051 8.51783 9.64062 -115.033 -10.7014 161.313
lowerback 24.4687 -1.04302 -0.290486
upperback 11.8997 -3.28661 1.27143
thorax -0.384232 -2.33597 2.32116
lowerneck -25.2099 -3.98166 0.149923
upperneck 7.74388 -6.42724 6.24607
head 6.5835 -2.57235 1.21385
rclavicle -4.77083e-015 7.95139e-016
rhumerus -3.05218 -4.15984 -82.8043
rradius 66.4399
rwrist 36.2023
rhand -46.9999 -8.54015
rfingers 7.12502
rthumb -19.7072 -37.5612
lclavicle -4.77083e-015 7.95139e-016
lhumerus 43.3478 -19.4378 63.0641
lradius 60.8817
lwrist -35.819
lhand -43.1128 25.5525
lfingers 7.12502
lthumb -15.967 54.9144
rfemur -86.1326 -24.5192 29.3389
rtibia 132.156
rfoot 12.2084 1.17986
rtoes 2.69728
lfemur -63.0315 2.86719 -20.8413
ltibia 104.763
lfoot 2.1354 0.577046
ltoes -3.28238
217
root 1.9935 8.53262 9.51435 -114.272 -10.4106 161.682
lowerback 24.335 -0.847042 -0.32609
upperback 11.6881 -2.97279 1.43269
thorax -0.557289 -2.16485 2.44261
lowerneck -25.3768 -4.08795 -0.0583499
upperneck 7.59633 -6.46558 6.00508
head 6.5558 -2.62319 1.16194
rclavicle 2.06736e-014 -2.16675e-014
rhumerus -4.25742 -4.46707 -82.5907
rradius 68.8094
rwrist 35.7256
rhand -47.0046 -8.4167
rfingers 7.12502
rthumb -19.7117 -37.4373
lclavicle 2.06736e-014 -2.16675e-014
lhumerus 42.3812 -19.7348 63.7033
lradius 61.6855
lwrist -36.1565
lhand -43.575 25.9645
lfingers 7.12502
lthumb -16.412 55.2902
rfemur -85.7113 -23.7543 29.4922
rtibia 131.91
rfoot 12.1721 0.685626
rtoes 1.89906
lfemur -63.0956 2.94105 -20.6155
ltibia 103.868
lfoot 2.07189 -0.20304
ltoes -3.25286
218
root 1.97791 8.54609 9.38852 -113.443 -10.0598 162.02
lowerback 24.1199 -0.63534 -0.487003
upperback 11.4765 -2.66347 1.60381
thorax -0.686894 -2.00092 2.64285
lowerneck -25.4958 -4.15098 -0.262217
upperneck 7.42763 -6.44866 5.77051
head 6.51243 -2.64894 1.11925
rclavicle -4.45278e-014 3.49861e-014
rhumerus -5.26477 -4.77945 -82.3311
rradius 71.3796
rwrist 35.2916
rhand -47.3201 -8.42
rfingers 7.12502
rthumb -20.015 -37.4092
lclavicle -4.45278e-014 3.49861e-014
lhumerus 41.4918 -20.0039 64.2714
lradius 62.4146
lwrist -36.5053
lhand -44.0129 26.4858
lfingers 7.12502
lthumb -16.8336 55.7762
rfemur -85.3723 -23.0061 29.6014
rtibia 131.675
rfoot 12.4388 0.34833
rtoes 1.17297
lfemur -63.2562 2.99526 -20.4808
ltibia 103.029
lfoot 2.03047 -0.917686
ltoes -3.21815
